<svg xmlns="http://www.w3.org/2000/svg" viewBox="0 0 64 64" role="img" aria-labelledby="title desc">
  <title id="title">Bonny NAS</title>
  <desc id="desc">Geometric BM monogram</desc>
  <defs>
    <linearGradient id="stroke" x1="10" y1="8" x2="54" y2="56" gradientUnits="userSpaceOnUse">
      <stop stop-color="#67E8F9"/>
      <stop offset="1" stop-color="#22D3EE"/>
    </linearGradient>
  </defs>
  <path d="M32 6 55 19v26L32 58 9 45V19L32 6Z" stroke="url(#stroke)" stroke-width="2" stroke-linejoin="round" opacity=".9"/>
  <path d="M20 20v25h8.5c5 0 7.5-2.5 7.5-6.5 0-2.8-1.4-4.7-4.1-5.4 2.1-.9 3.1-2.5 3.1-4.7 0-4-2.6-6.4-7.4-6.4H20Zm5 4.2h2.2c1.8 0 2.8.9 2.8 2.6 0 1.8-1 2.8-2.9 2.8H25v-5.4Zm0 9.4h2.9c2.1 0 3.2 1 3.2 3 0 2-1.1 3.1-3.3 3.1H25v-6.1Z" fill="#E6FCFF"/>
  <path d="M38 45V20l8.5 11.8L55 20v25" stroke="#E6FCFF" stroke-width="3.2" stroke-linecap="round" stroke-linejoin="round"/>
  <circle cx="32" cy="6" r="2.4" fill="#67E8F9"/><circle cx="9" cy="45" r="2.4" fill="#67E8F9"/><circle cx="55" cy="45" r="2.4" fill="#67E8F9"/>
</svg>